# xmcd
#
# Track frame offsets:
#	150
#	12818
#	26728
#	39430
#	61563
#	76523
#	90355
#	102608
#	117213
#	128093
#
# Disc length: 1900 seconds
#
# Revision: 1
# Processed by: cddbd v1.5.2PL0 Copyright (c) Steve Scherf et al.
# Submitted via: audiograbber 1.83.01
#
DISCID=67076a0a
DTITLE=Dwight Yoakam - Guitars, Cadillacs, Etc., Etc.
DYEAR=1986
DGENRE=Country
TTITLE0=Dwight Yoakam - Honky Tonk Man
TTITLE1=Dwight Yoakam - It Wont Hurt
TTITLE2=Dwight Yoakam - Ill Be Gone
TTITLE3=Dwight Yoakam - South Of Cincinnati
TTITLE4=Dwight Yoakam with Maria McKee - Bury Me
TTITLE5=Dwight Yoakam - Guitars, Cadillacs
TTITLE6=Dwight Yoakam - Twenty Years
TTITLE7=Dwight Yoakam - Ring Of Fire
TTITLE8=Dwight Yoakam - Miner's Prayer
TTITLE9=Dwight Yoakam - Heartaches By The Number
EXTD=(c)1986 Reprise Records - WEA\nupc 07599253722\nProduced by Peter Anderson
EXTD=\nArranged by Pete.An
EXTT0=
EXTT1=
EXTT2=
EXTT3=
EXTT4=
EXTT5=
EXTT6=
EXTT7=
EXTT8=
EXTT9=
PLAYORDER=
